<svg width="19.500000" height="19.500000" viewBox="0 0 19.5 19.5" fill="none" xmlns="http://www.w3.org/2000/svg" xmlns:xlink="http://www.w3.org/1999/xlink">
	<desc>
			Created with Pixso.
	</desc>
	<defs/>
	<path id="Vector" d="M15.75 5.25L15.75 8.25L15.75 11.25M15.75 8.25L18.75 8.25M15.75 8.25L12.75 8.25M9.51147 6.51147C8.87854 7.14453 8.02008 7.5 7.125 7.5C6.22992 7.5 5.37146 7.14453 4.73853 6.51147C4.10559 5.87866 3.75 5.02002 3.75 4.125C3.75 3.22998 4.10559 2.37134 4.73853 1.73853C5.37146 1.10547 6.22992 0.75 7.125 0.75C8.02008 0.75 8.87854 1.10547 9.51147 1.73853C10.1444 2.37134 10.5 3.22998 10.5 4.125C10.5 5.02002 10.1444 5.87866 9.51147 6.51147ZM0.75 16.875C0.75 15.1843 1.42163 13.5627 2.61719 12.3672C3.81274 11.1716 5.43427 10.5 7.125 10.5C8.81573 10.5 10.4373 11.1716 11.6328 12.3672C12.8284 13.5627 13.5 15.1843 13.5 16.875L13.5 16.9839C11.5755 18.1431 9.37061 18.7539 7.12402 18.75C4.79297 18.75 2.612 18.105 0.75 16.9839L0.75 16.9851L0.75 16.875Z" stroke="#12132D" stroke-opacity="0.600000" stroke-width="1.500000" stroke-linejoin="round"/>
</svg>
