<svg width="22.500000" height="22.500000" viewBox="0 0 22.5 22.5" fill="none" xmlns="http://www.w3.org/2000/svg" xmlns:xlink="http://www.w3.org/1999/xlink">
	<desc>
			Created with Pixso.
	</desc>
	<defs/>
	<path id="Vector" d="M1.54926 15.2682C2.07694 16.5421 2.85036 17.6996 3.82538 18.6746C4.80039 19.6497 5.95791 20.4231 7.23183 20.9507C8.50574 21.4784 9.87112 21.75 11.25 21.75C12.6289 21.75 13.9943 21.4784 15.2682 20.9507C16.5421 20.4231 17.6996 19.6497 18.6746 18.6746C19.6496 17.6996 20.4231 16.5421 20.9507 15.2682C21.4784 13.9943 21.75 12.6289 21.75 11.25C21.75 9.87109 21.4784 8.50574 20.9507 7.23181C20.4231 5.95789 19.6496 4.80042 18.6746 3.82544C17.6996 2.85034 16.5421 2.0769 15.2682 1.54932C13.9943 1.02161 12.6289 0.75 11.25 0.75C9.87112 0.75 8.50574 1.02161 7.23183 1.54932C5.95791 2.0769 4.80039 2.85034 3.82538 3.82544C2.85036 4.80042 2.07694 5.95789 1.54926 7.23181C1.02159 8.50574 0.75 9.87109 0.75 11.25C0.75 12.6289 1.02159 13.9943 1.54926 15.2682ZM11.25 5.41663L11.25 11.25L7.16666 11.25" stroke="#12132D" stroke-opacity="0.600000" stroke-width="1.500000" stroke-linejoin="round" stroke-linecap="round"/>
</svg>
