<svg width="22.500000" height="21.333374" viewBox="0 0 22.5 21.3334" fill="none" xmlns="http://www.w3.org/2000/svg" xmlns:xlink="http://www.w3.org/1999/xlink">
	<desc>
			Created with Pixso.
	</desc>
	<defs/>
	<path id="Vector" d="M6.58334 6.58337L15.9167 6.58337M6.58334 11.25L13.5833 11.25M4.25 17.0834C3.32174 17.0834 2.4315 16.7146 1.77512 16.0582C1.11875 15.4019 0.75 14.5116 0.75 13.5834L0.75 4.25C0.75 3.32178 1.11875 2.43152 1.77512 1.77515C2.4315 1.11877 3.32174 0.75 4.25 0.75L18.25 0.75C19.1783 0.75 20.0685 1.11877 20.7249 1.77515C21.3812 2.43152 21.75 3.32178 21.75 4.25L21.75 13.5834C21.75 14.5116 21.3812 15.4019 20.7249 16.0582C20.0685 16.7146 19.1783 17.0834 18.25 17.0834L14.75 17.0834L11.25 20.5834L7.75 17.0834L4.25 17.0834Z" stroke="#12132D" stroke-opacity="0.600000" stroke-width="1.500000" stroke-linejoin="round"/>
</svg>
